<svg viewBox="0 0 123 102" fill="none" xmlns="http://www.w3.org/2000/svg">
<path fill-rule="evenodd" clip-rule="evenodd" d="M110.722 70.0023C106.641 70.5185 98.824 73.7529 94.8311 75.2756C90.1473 77.0614 66.6601 85.8115 63.2723 86.1675C57.9943 86.7224 51.1633 83.411 46.4679 81.7533L23.1447 73.3492C17.3583 71.175 12.0125 68.4998 5.83506 70.6945C3.48407 71.5296 0.54352 73.2926 0.479169 76.246C0.368935 81.2838 8.26743 82.9663 13.3535 84.7585C23.7187 88.4104 34.0409 92.1847 44.3778 95.9628C62.3777 102.542 60.4847 102.899 76.9673 96.6764L115.871 82.6045C118.946 81.4907 121.195 80.7803 122.366 78.3325C124.893 73.05 117.248 69.1762 110.722 70.0023Z" fill="currentColor" fill-opacity="0.2"/>
<path fill-rule="evenodd" clip-rule="evenodd" d="M110.244 44.014C106.163 44.5302 98.346 47.7646 94.353 49.2873C89.6692 51.0732 66.1821 59.8232 62.7943 60.1793C57.5163 60.7341 50.6853 57.4228 45.9899 55.765L22.6667 47.3609C16.8803 45.1867 11.5345 42.5115 5.35703 44.7063C3.00604 45.5413 0.065493 47.3043 0.00114152 50.2577C-0.109093 55.2955 7.7894 56.9781 12.8755 58.7702C23.2407 62.4222 33.5629 66.1965 43.8998 69.9745C61.8997 76.5537 60.0067 76.911 76.4893 70.6881L115.392 56.6163C118.468 55.5024 120.717 54.792 121.888 52.3442C124.415 47.0617 116.77 43.1879 110.244 44.014Z" fill="currentColor" fill-opacity="0.6"/>
<path fill-rule="evenodd" clip-rule="evenodd" d="M54.3549 47.9576C49.4125 45.9568 43.7744 43.9632 38.671 42.24C32.7071 40.2261 26.4603 37.914 20.2329 35.6092C15.937 34.0193 11.6503 32.4327 7.47212 30.9498C4.57573 29.922 2.24293 29.0627 1.05834 26.8907C-0.699635 23.6682 1.82709 21.1228 3.77639 19.9831C5.63566 18.8958 56.0283 0.764341 58.0261 0.291404C60.1064 -0.200577 65 -0.112549 67 0.887348C71 2.38745 98.1252 11.9924 110.554 16.5143C112.854 17.3509 114.55 17.9682 115.349 18.2566C115.436 18.2879 115.522 18.3191 115.609 18.3501C118.409 19.3594 120.956 20.2772 122.207 22.4273C125.475 28.0458 117.31 30.6592 113.057 32.0202C112.447 32.2156 111.917 32.3852 111.513 32.5342L87.6134 41.172C86.5486 41.5426 84.7703 42.2062 82.6354 43.0029C76.031 45.4676 66.0138 49.2058 63.1489 49.4825C59.8778 49.7984 58.1295 49.1861 56.4418 48.5952C55.7676 48.3591 55.1029 48.1264 54.3549 47.9576ZM64.6171 34.3807C58.9516 34.8853 55.1506 33.4013 50.7995 31.7026C49.741 31.2894 48.6499 30.8634 47.4915 30.4503C44.8609 29.5119 42.2343 28.5704 39.5774 27.6118L32.2887 24.928C31.9319 24.7312 31.873 24.7068 31.873 24.7068C31.873 24.7068 31.9535 24.7351 31.7439 24.561L48.1774 18.6849C49.2811 18.2804 50.2963 17.8809 51.2576 17.5025C56.1768 15.5665 59.6852 14.1856 66.4287 15.5463L91.5562 24.6191L90.8541 25.039C90.6633 25.1363 90.2816 25.2782 90.079 25.3512C89.7676 25.4636 89.4948 25.5555 89.228 25.6453C88.9236 25.7477 88.6271 25.8475 88.2901 25.9722L78.21 29.6062C76.9551 30.0579 75.6357 30.5642 74.2885 31.0812C71.0569 32.3214 67.6649 33.6231 64.6171 34.3807Z" fill="currentColor"/>
</svg>
