<svg width="130" viewBox="0 0 130 148" fill="none" xmlns="http://www.w3.org/2000/svg"><path d="M125.517 33.6725C128.167 35.2024 129.8 38.0298 129.8 41.0896V106.14C129.8 109.199 128.167 112.027 125.517 113.557L69.1821 146.082C66.5322 147.612 63.2675 147.612 60.6176 146.082L4.28228 113.557C1.6324 112.027 0 109.199 0 106.14V41.0896C0 38.0298 1.6324 35.2024 4.28228 33.6725L60.6176 1.14742C63.2675 -0.382473 66.5322 -0.382473 69.1821 1.14742L125.517 33.6725ZM14.988 39.8523C12.3381 41.3822 10.7057 44.2096 10.7057 47.2695V99.9587C10.7057 103.019 12.3381 105.846 14.988 107.376L60.6177 133.719C63.2675 135.249 66.5322 135.249 69.182 133.719L114.812 107.376C117.462 105.846 119.094 103.019 119.094 99.9587V47.2695C119.094 44.2096 117.462 41.3822 114.812 39.8523L69.182 13.509C66.5322 11.9791 63.2675 11.9791 60.6177 13.509L14.988 39.8523Z" fill="#fff"></path><path d="M64.9027 10.9866L119.499 42.2592L64.9002 72.5441L11.3719 42.033L64.9027 10.9866Z" fill="#fff" fill-opacity="0.2"></path><path d="M88.4593 39.8748C87.688 39.496 86.7789 39.5266 86.0348 39.9564L68.7361 49.9478C66.9502 50.9794 67.0348 53.5884 68.8838 54.5017L82.1611 62.127C83.1052 62.5933 83.6715 63.5873 83.592 64.6385V78.5801C83.4355 80.6503 85.6583 82.0501 87.4537 81.012L97.5681 75.1643L104.708 71.0199C105.442 70.5938 105.92 69.8335 105.986 68.9865V51.7141C105.986 50.6706 105.188 49.5673 104.328 49.1368L88.4593 39.8748Z" fill="#fff"></path></svg>